<svg width="246" height="68" viewBox="0 0 246 68" fill="none" xmlns="http://www.w3.org/2000/svg">
<path fill-rule="evenodd" clip-rule="evenodd" d="M47.1111 44.559C53.1249 44.559 58 39.8316 58 34C58 28.1684 53.1249 23.441 47.1111 23.441C41.0974 23.441 36.2222 28.1684 36.2222 34C36.2222 39.8316 41.0974 44.559 47.1111 44.559ZM47.1079 42.652C52.0373 42.652 56.0335 38.777 56.0335 33.9968C56.0335 29.2167 52.0373 25.3416 47.1079 25.3416C42.1784 25.3416 38.1822 29.2167 38.1822 33.9968C38.1822 38.777 42.1784 42.652 47.1079 42.652Z" fill="#E5EAF0"/>
<rect x="46.4578" y="17" width="1.21338" height="34" rx="0.606692" fill="#E5EAF0"/>
<path d="M94.552 23.384C94.552 24.0347 94.4027 24.632 94.104 25.176C93.8053 25.7093 93.3467 26.1413 92.728 26.472C92.1093 26.8027 91.3413 26.968 90.424 26.968H88.728V31H85.992V19.768H90.424C91.32 19.768 92.0773 19.9227 92.696 20.232C93.3147 20.5413 93.7787 20.968 94.088 21.512C94.3973 22.056 94.552 22.68 94.552 23.384ZM90.216 24.792C90.7387 24.792 91.128 24.6693 91.384 24.424C91.64 24.1787 91.768 23.832 91.768 23.384C91.768 22.936 91.64 22.5893 91.384 22.344C91.128 22.0987 90.7387 21.976 90.216 21.976H88.728V24.792H90.216ZM101.723 21.976C102.747 21.976 103.569 22.3173 104.187 23C104.806 23.672 105.115 24.6 105.115 25.784V31H102.395V26.152C102.395 25.5547 102.241 25.0907 101.931 24.76C101.622 24.4293 101.206 24.264 100.683 24.264C100.161 24.264 99.7446 24.4293 99.4353 24.76C99.1259 25.0907 98.9713 25.5547 98.9713 26.152V31H96.2353V19.16H98.9713V23.272C99.2486 22.8773 99.6273 22.5627 100.107 22.328C100.587 22.0933 101.126 21.976 101.723 21.976ZM108.651 21.144C108.171 21.144 107.777 21.0053 107.467 20.728C107.169 20.44 107.019 20.088 107.019 19.672C107.019 19.2453 107.169 18.8933 107.467 18.616C107.777 18.328 108.171 18.184 108.651 18.184C109.121 18.184 109.505 18.328 109.803 18.616C110.113 18.8933 110.267 19.2453 110.267 19.672C110.267 20.088 110.113 20.44 109.803 20.728C109.505 21.0053 109.121 21.144 108.651 21.144ZM110.011 22.072V31H107.275V22.072H110.011ZM85.688 43.584C85.688 42.688 85.8693 41.904 86.232 41.232C86.5947 40.5493 87.0907 40.0213 87.72 39.648C88.36 39.2747 89.0693 39.088 89.848 39.088C90.616 39.088 91.2827 39.2533 91.848 39.584C92.4133 39.9147 92.8347 40.3307 93.112 40.832V39.232H94.584V48H93.112V46.368C92.824 46.88 92.392 47.3067 91.816 47.648C91.2507 47.9787 90.5893 48.144 89.832 48.144C89.0533 48.144 88.3493 47.952 87.72 47.568C87.0907 47.184 86.5947 46.6453 86.232 45.952C85.8693 45.2587 85.688 44.4693 85.688 43.584ZM93.112 43.6C93.112 42.9387 92.9787 42.3627 92.712 41.872C92.4453 41.3813 92.0827 41.008 91.624 40.752C91.176 40.4853 90.68 40.352 90.136 40.352C89.592 40.352 89.096 40.48 88.648 40.736C88.2 40.992 87.8427 41.3653 87.576 41.856C87.3093 42.3467 87.176 42.9227 87.176 43.584C87.176 44.256 87.3093 44.8427 87.576 45.344C87.8427 45.8347 88.2 46.2133 88.648 46.48C89.096 46.736 89.592 46.864 90.136 46.864C90.68 46.864 91.176 46.736 91.624 46.48C92.0827 46.2133 92.4453 45.8347 92.712 45.344C92.9787 44.8427 93.112 44.2613 93.112 43.6ZM101.284 43.6C101.284 42.6933 101.465 41.904 101.828 41.232C102.191 40.5493 102.692 40.0213 103.332 39.648C103.983 39.2747 104.724 39.088 105.556 39.088C106.633 39.088 107.519 39.3493 108.212 39.872C108.916 40.3947 109.38 41.12 109.604 42.048H108.036C107.887 41.5147 107.593 41.0933 107.156 40.784C106.729 40.4747 106.196 40.32 105.556 40.32C104.724 40.32 104.052 40.608 103.54 41.184C103.028 41.7493 102.772 42.5547 102.772 43.6C102.772 44.656 103.028 45.472 103.54 46.048C104.052 46.624 104.724 46.912 105.556 46.912C106.196 46.912 106.729 46.7627 107.156 46.464C107.583 46.1653 107.876 45.7387 108.036 45.184H109.604C109.369 46.08 108.9 46.8 108.196 47.344C107.492 47.8773 106.612 48.144 105.556 48.144C104.724 48.144 103.983 47.9573 103.332 47.584C102.692 47.2107 102.191 46.6827 101.828 46C101.465 45.3173 101.284 44.5173 101.284 43.6ZM114.91 48.144C114.238 48.144 113.635 48.032 113.102 47.808C112.568 47.5733 112.147 47.2533 111.838 46.848C111.528 46.432 111.358 45.9573 111.326 45.424H112.83C112.872 45.8613 113.075 46.2187 113.438 46.496C113.811 46.7733 114.296 46.912 114.894 46.912C115.448 46.912 115.886 46.7893 116.206 46.544C116.526 46.2987 116.686 45.9893 116.686 45.616C116.686 45.232 116.515 44.9493 116.174 44.768C115.832 44.576 115.304 44.3893 114.59 44.208C113.939 44.0373 113.406 43.8667 112.99 43.696C112.584 43.5147 112.232 43.2533 111.934 42.912C111.646 42.56 111.502 42.1013 111.502 41.536C111.502 41.088 111.635 40.6773 111.902 40.304C112.168 39.9307 112.547 39.6373 113.038 39.424C113.528 39.2 114.088 39.088 114.718 39.088C115.688 39.088 116.472 39.3333 117.07 39.824C117.667 40.3147 117.987 40.9867 118.03 41.84H116.574C116.542 41.3813 116.355 41.0133 116.014 40.736C115.683 40.4587 115.235 40.32 114.67 40.32C114.147 40.32 113.731 40.432 113.422 40.656C113.112 40.88 112.958 41.1733 112.958 41.536C112.958 41.824 113.048 42.064 113.23 42.256C113.422 42.4373 113.656 42.5867 113.934 42.704C114.222 42.8107 114.616 42.9333 115.118 43.072C115.747 43.2427 116.259 43.4133 116.654 43.584C117.048 43.744 117.384 43.9893 117.662 44.32C117.95 44.6507 118.099 45.0827 118.11 45.616C118.11 46.096 117.976 46.528 117.71 46.912C117.443 47.296 117.064 47.6 116.574 47.824C116.094 48.0373 115.539 48.144 114.91 48.144ZM123.528 48.144C122.856 48.144 122.253 48.032 121.72 47.808C121.186 47.5733 120.765 47.2533 120.456 46.848C120.146 46.432 119.976 45.9573 119.944 45.424H121.448C121.49 45.8613 121.693 46.2187 122.056 46.496C122.429 46.7733 122.914 46.912 123.512 46.912C124.066 46.912 124.504 46.7893 124.824 46.544C125.144 46.2987 125.304 45.9893 125.304 45.616C125.304 45.232 125.133 44.9493 124.792 44.768C124.45 44.576 123.922 44.3893 123.208 44.208C122.557 44.0373 122.024 43.8667 121.608 43.696C121.202 43.5147 120.85 43.2533 120.552 42.912C120.264 42.56 120.12 42.1013 120.12 41.536C120.12 41.088 120.253 40.6773 120.52 40.304C120.786 39.9307 121.165 39.6373 121.656 39.424C122.146 39.2 122.706 39.088 123.336 39.088C124.306 39.088 125.09 39.3333 125.688 39.824C126.285 40.3147 126.605 40.9867 126.648 41.84H125.192C125.16 41.3813 124.973 41.0133 124.632 40.736C124.301 40.4587 123.853 40.32 123.288 40.32C122.765 40.32 122.349 40.432 122.04 40.656C121.73 40.88 121.576 41.1733 121.576 41.536C121.576 41.824 121.666 42.064 121.848 42.256C122.04 42.4373 122.274 42.5867 122.552 42.704C122.84 42.8107 123.234 42.9333 123.736 43.072C124.365 43.2427 124.877 43.4133 125.272 43.584C125.666 43.744 126.002 43.9893 126.28 44.32C126.568 44.6507 126.717 45.0827 126.728 45.616C126.728 46.096 126.594 46.528 126.328 46.912C126.061 47.296 125.682 47.6 125.192 47.824C124.712 48.0373 124.157 48.144 123.528 48.144ZM137.135 40.432H135.295V48H133.839V40.432H132.703V39.232H133.839V38.608C133.839 37.6267 134.089 36.912 134.591 36.464C135.103 36.0053 135.919 35.776 137.039 35.776V36.992C136.399 36.992 135.945 37.12 135.679 37.376C135.423 37.6213 135.295 38.032 135.295 38.608V39.232H137.135V40.432ZM140.547 40.656C140.803 40.1547 141.166 39.7653 141.635 39.488C142.115 39.2107 142.696 39.072 143.379 39.072V40.576H142.995C141.363 40.576 140.547 41.4613 140.547 43.232V48H139.091V39.232H140.547V40.656ZM144.775 43.584C144.775 42.688 144.956 41.904 145.319 41.232C145.681 40.5493 146.177 40.0213 146.807 39.648C147.447 39.2747 148.156 39.088 148.935 39.088C149.703 39.088 150.369 39.2533 150.935 39.584C151.5 39.9147 151.921 40.3307 152.199 40.832V39.232H153.671V48H152.199V46.368C151.911 46.88 151.479 47.3067 150.903 47.648C150.337 47.9787 149.676 48.144 148.919 48.144C148.14 48.144 147.436 47.952 146.807 47.568C146.177 47.184 145.681 46.6453 145.319 45.952C144.956 45.2587 144.775 44.4693 144.775 43.584ZM152.199 43.6C152.199 42.9387 152.065 42.3627 151.799 41.872C151.532 41.3813 151.169 41.008 150.711 40.752C150.263 40.4853 149.767 40.352 149.223 40.352C148.679 40.352 148.183 40.48 147.735 40.736C147.287 40.992 146.929 41.3653 146.663 41.856C146.396 42.3467 146.263 42.9227 146.263 43.584C146.263 44.256 146.396 44.8427 146.663 45.344C146.929 45.8347 147.287 46.2133 147.735 46.48C148.183 46.736 148.679 46.864 149.223 46.864C149.767 46.864 150.263 46.736 150.711 46.48C151.169 46.2133 151.532 45.8347 151.799 45.344C152.065 44.8427 152.199 44.2613 152.199 43.6ZM166.934 39.072C167.617 39.072 168.225 39.216 168.758 39.504C169.291 39.7813 169.713 40.2027 170.022 40.768C170.331 41.3333 170.486 42.0213 170.486 42.832V48H169.046V43.04C169.046 42.1653 168.827 41.4987 168.39 41.04C167.963 40.5707 167.382 40.336 166.646 40.336C165.889 40.336 165.286 40.5813 164.838 41.072C164.39 41.552 164.166 42.2507 164.166 43.168V48H162.726V43.04C162.726 42.1653 162.507 41.4987 162.07 41.04C161.643 40.5707 161.062 40.336 160.326 40.336C159.569 40.336 158.966 40.5813 158.518 41.072C158.07 41.552 157.846 42.2507 157.846 43.168V48H156.39V39.232H157.846V40.496C158.134 40.0373 158.518 39.6853 158.998 39.44C159.489 39.1947 160.027 39.072 160.614 39.072C161.35 39.072 162.001 39.2373 162.566 39.568C163.131 39.8987 163.553 40.384 163.83 41.024C164.075 40.4053 164.481 39.9253 165.046 39.584C165.611 39.2427 166.241 39.072 166.934 39.072ZM181.133 43.28C181.133 43.5573 181.117 43.8507 181.085 44.16H174.077C174.131 45.024 174.424 45.7013 174.957 46.192C175.501 46.672 176.157 46.912 176.925 46.912C177.555 46.912 178.077 46.768 178.493 46.48C178.92 46.1813 179.219 45.7867 179.389 45.296H180.957C180.723 46.1387 180.253 46.8267 179.549 47.36C178.845 47.8827 177.971 48.144 176.925 48.144C176.093 48.144 175.347 47.9573 174.685 47.584C174.035 47.2107 173.523 46.6827 173.149 46C172.776 45.3067 172.589 44.5067 172.589 43.6C172.589 42.6933 172.771 41.8987 173.133 41.216C173.496 40.5333 174.003 40.0107 174.653 39.648C175.315 39.2747 176.072 39.088 176.925 39.088C177.757 39.088 178.493 39.2693 179.133 39.632C179.773 39.9947 180.264 40.496 180.605 41.136C180.957 41.7653 181.133 42.48 181.133 43.28ZM179.629 42.976C179.629 42.4213 179.507 41.9467 179.261 41.552C179.016 41.1467 178.68 40.8427 178.253 40.64C177.837 40.4267 177.373 40.32 176.861 40.32C176.125 40.32 175.496 40.5547 174.973 41.024C174.461 41.4933 174.168 42.144 174.093 42.976H179.629ZM194.994 39.232L192.258 48H190.754L188.642 41.04L186.53 48H185.026L182.274 39.232H183.762L185.778 46.592L187.954 39.232H189.442L191.57 46.608L193.554 39.232H194.994ZM200.522 48.144C199.701 48.144 198.954 47.9573 198.282 47.584C197.621 47.2107 197.098 46.6827 196.714 46C196.341 45.3067 196.154 44.5067 196.154 43.6C196.154 42.704 196.346 41.9147 196.73 41.232C197.125 40.5387 197.658 40.0107 198.33 39.648C199.002 39.2747 199.754 39.088 200.586 39.088C201.418 39.088 202.17 39.2747 202.842 39.648C203.514 40.0107 204.042 40.5333 204.426 41.216C204.821 41.8987 205.018 42.6933 205.018 43.6C205.018 44.5067 204.815 45.3067 204.41 46C204.015 46.6827 203.477 47.2107 202.794 47.584C202.111 47.9573 201.354 48.144 200.522 48.144ZM200.522 46.864C201.045 46.864 201.535 46.7413 201.994 46.496C202.453 46.2507 202.821 45.8827 203.098 45.392C203.386 44.9013 203.53 44.304 203.53 43.6C203.53 42.896 203.391 42.2987 203.114 41.808C202.837 41.3173 202.474 40.9547 202.026 40.72C201.578 40.4747 201.093 40.352 200.57 40.352C200.037 40.352 199.546 40.4747 199.098 40.72C198.661 40.9547 198.309 41.3173 198.042 41.808C197.775 42.2987 197.642 42.896 197.642 43.6C197.642 44.3147 197.77 44.9173 198.026 45.408C198.293 45.8987 198.645 46.2667 199.082 46.512C199.519 46.7467 199.999 46.864 200.522 46.864ZM208.647 40.656C208.903 40.1547 209.266 39.7653 209.735 39.488C210.215 39.2107 210.797 39.072 211.479 39.072V40.576H211.095C209.463 40.576 208.647 41.4613 208.647 43.232V48H207.191V39.232H208.647V40.656ZM218.315 48L214.875 44.128V48H213.419V36.16H214.875V43.12L218.251 39.232H220.283L216.155 43.6L220.299 48H218.315Z" fill="#E5EAF0"/>
</svg>
